<svg width="242" height="40" viewBox="0 0 242 40" fill="none" xmlns="http://www.w3.org/2000/svg">
<path d="M35.0353 0.691895H7.00706C3.13717 0.691895 0 3.62503 0 7.24325V33.4486C0 37.0669 3.13717 40 7.00706 40H35.0353C38.9052 40 42.0424 37.0669 42.0424 33.4486V7.24325C42.0424 3.62503 38.9052 0.691895 35.0353 0.691895Z" fill="url(#paint0_radial_2229_113)"/>
<path fill-rule="evenodd" clip-rule="evenodd" d="M19.9958 8.17773C17.5269 8.17773 15.5255 10.0474 15.5255 12.3538V24.4777C15.5255 26.7841 17.5269 28.6537 19.9958 28.6537C22.4646 28.6537 24.466 26.7841 24.466 24.4777V12.3538C24.466 10.0474 22.4646 8.17773 19.9958 8.17773ZM16.6791 12.3538C16.6791 10.6426 18.164 9.25542 19.9958 9.25542C21.8275 9.25542 23.3124 10.6426 23.3124 12.3538V17.4274C22.0315 17.8349 21.0276 18.0278 20.0323 18.0286C19.0339 18.0294 18.0064 17.8369 16.6791 17.4244V12.3538Z" fill="white"/>
<path fill-rule="evenodd" clip-rule="evenodd" d="M19.8628 10.2931C19.7203 10.0269 19.3738 9.91903 19.0889 10.0521C17.4707 10.808 17.4718 12.3304 17.4723 12.9309C17.4723 12.9404 17.4723 12.9498 17.4723 12.9589C17.4723 13.2565 17.7305 13.4977 18.0491 13.4977C18.3676 13.4977 18.6259 13.2565 18.6259 12.9589C18.6259 12.3262 18.6532 11.4605 19.6048 11.016C19.8898 10.8829 20.0052 10.5593 19.8628 10.2931Z" fill="white"/>
<path d="M89.118 13.2279V35.6919H83.646V26.4439H75.134V35.6919H69.662V13.2279H75.134V22.0279H83.646V13.2279H89.118ZM92.6202 26.7319C92.6202 24.8972 92.9616 23.2866 93.6442 21.8999C94.3482 20.5132 95.2976 19.4466 96.4922 18.6999C97.6869 17.9532 99.0202 17.5799 100.492 17.5799C101.751 17.5799 102.85 17.8359 103.788 18.3479C104.748 18.8599 105.484 19.5319 105.996 20.3639V17.8359H111.468V35.6919H105.996V33.1639C105.463 33.9959 104.716 34.6679 103.756 35.1799C102.818 35.6919 101.719 35.9479 100.46 35.9479C99.0096 35.9479 97.6869 35.5746 96.4922 34.8279C95.2976 34.0599 94.3482 32.9826 93.6442 31.5959C92.9616 30.1879 92.6202 28.5666 92.6202 26.7319ZM105.996 26.7639C105.996 25.3986 105.612 24.3212 104.844 23.5319C104.098 22.7426 103.18 22.3479 102.092 22.3479C101.004 22.3479 100.076 22.7426 99.3082 23.5319C98.5616 24.2999 98.1882 25.3666 98.1882 26.7319C98.1882 28.0972 98.5616 29.1852 99.3082 29.9959C100.076 30.7852 101.004 31.1799 102.092 31.1799C103.18 31.1799 104.098 30.7852 104.844 29.9959C105.612 29.2066 105.996 28.1292 105.996 26.7639ZM121.539 12.0119V35.6919H116.067V12.0119H121.539ZM134.272 35.9479C132.523 35.9479 130.944 35.5746 129.536 34.8279C128.15 34.0812 127.051 33.0146 126.24 31.6279C125.451 30.2412 125.056 28.6199 125.056 26.7639C125.056 24.9292 125.462 23.3186 126.272 21.9319C127.083 20.5239 128.192 19.4466 129.6 18.6999C131.008 17.9532 132.587 17.5799 134.336 17.5799C136.086 17.5799 137.664 17.9532 139.072 18.6999C140.48 19.4466 141.59 20.5239 142.4 21.9319C143.211 23.3186 143.616 24.9292 143.616 26.7639C143.616 28.5986 143.2 30.2199 142.368 31.6279C141.558 33.0146 140.438 34.0812 139.008 34.8279C137.6 35.5746 136.022 35.9479 134.272 35.9479ZM134.272 31.2119C135.318 31.2119 136.203 30.8279 136.928 30.0599C137.675 29.2919 138.048 28.1932 138.048 26.7639C138.048 25.3346 137.686 24.2359 136.96 23.4679C136.256 22.6999 135.382 22.3159 134.336 22.3159C133.27 22.3159 132.384 22.6999 131.68 23.4679C130.976 24.2146 130.624 25.3132 130.624 26.7639C130.624 28.1932 130.966 29.2919 131.648 30.0599C132.352 30.8279 133.227 31.2119 134.272 31.2119ZM162.071 20.3319C161.666 19.5852 161.079 19.0199 160.311 18.6359C159.565 18.2306 158.679 18.0279 157.655 18.0279C155.885 18.0279 154.466 18.6146 153.399 19.7879C152.333 20.9399 151.799 22.4866 151.799 24.4279C151.799 26.4972 152.354 28.1186 153.463 29.2919C154.594 30.4439 156.141 31.0199 158.103 31.0199C159.447 31.0199 160.578 30.6786 161.495 29.9959C162.434 29.3132 163.117 28.3319 163.543 27.0519H156.599V23.0199H168.503V28.1079C168.098 29.4732 167.405 30.7426 166.423 31.9159C165.463 33.0892 164.237 34.0386 162.743 34.7639C161.25 35.4892 159.565 35.8519 157.687 35.8519C155.469 35.8519 153.485 35.3719 151.735 34.4119C150.007 33.4306 148.653 32.0759 147.671 30.3479C146.711 28.6199 146.231 26.6466 146.231 24.4279C146.231 22.2092 146.711 20.2359 147.671 18.5079C148.653 16.7586 150.007 15.4039 151.735 14.4439C153.463 13.4626 155.437 12.9719 157.655 12.9719C160.343 12.9719 162.605 13.6226 164.439 14.9239C166.295 16.2252 167.522 18.0279 168.119 20.3319H162.071ZM189.806 17.8359V35.6919H184.334V33.2599C183.78 34.0492 183.022 34.6892 182.062 35.1799C181.124 35.6492 180.078 35.8839 178.926 35.8839C177.561 35.8839 176.356 35.5852 175.31 34.9879C174.265 34.3692 173.454 33.4839 172.878 32.3319C172.302 31.1799 172.014 29.8252 172.014 28.2679V17.8359H177.454V27.5319C177.454 28.7266 177.764 29.6546 178.382 30.3159C179.001 30.9772 179.833 31.3079 180.878 31.3079C181.945 31.3079 182.788 30.9772 183.406 30.3159C184.025 29.6546 184.334 28.7266 184.334 27.5319V17.8359H189.806ZM199.849 12.0119V35.6919H194.377V12.0119H199.849ZM203.366 26.7319C203.366 24.8972 203.708 23.2866 204.39 21.8999C205.094 20.5132 206.044 19.4466 207.238 18.6999C208.433 17.9532 209.766 17.5799 211.238 17.5799C212.497 17.5799 213.596 17.8359 214.534 18.3479C215.494 18.8599 216.23 19.5319 216.742 20.3639V17.8359H222.214V35.6919H216.742V33.1639C216.209 33.9959 215.462 34.6679 214.502 35.1799C213.564 35.6919 212.465 35.9479 211.206 35.9479C209.756 35.9479 208.433 35.5746 207.238 34.8279C206.044 34.0599 205.094 32.9826 204.39 31.5959C203.708 30.1879 203.366 28.5666 203.366 26.7319ZM216.742 26.7639C216.742 25.3986 216.358 24.3212 215.59 23.5319C214.844 22.7426 213.926 22.3479 212.838 22.3479C211.75 22.3479 210.822 22.7426 210.054 23.5319C209.308 24.2999 208.934 25.3666 208.934 26.7319C208.934 28.0972 209.308 29.1852 210.054 29.9959C210.822 30.7852 211.75 31.1799 212.838 31.1799C213.926 31.1799 214.844 30.7852 215.59 29.9959C216.358 29.2066 216.742 28.1292 216.742 26.7639ZM234.013 12.4279L233.373 27.7559H228.733L228.093 12.4279H234.013ZM231.133 35.9479C230.173 35.9479 229.384 35.6706 228.765 35.1159C228.168 34.5399 227.869 33.8359 227.869 33.0039C227.869 32.1506 228.168 31.4359 228.765 30.8599C229.384 30.2839 230.173 29.9959 231.133 29.9959C232.072 29.9959 232.84 30.2839 233.437 30.8599C234.056 31.4359 234.365 32.1506 234.365 33.0039C234.365 33.8359 234.056 34.5399 233.437 35.1159C232.84 35.6706 232.072 35.9479 231.133 35.9479Z" fill="url(#paint1_radial_2229_113)"/>
<defs>
<radialGradient id="paint0_radial_2229_113" cx="0" cy="0" r="1" gradientUnits="userSpaceOnUse" gradientTransform="translate(21.0212 24.8799) rotate(-0.338762) scale(40.5049 37.8083)">
<stop stop-color="#B01F24"/>
<stop offset="1" stop-color="#6A0D1D"/>
</radialGradient>
<radialGradient id="paint1_radial_2229_113" cx="0" cy="0" r="1" gradientUnits="userSpaceOnUse" gradientTransform="translate(154.839 4.52109) scale(87.161 3.82919)">
<stop stop-color="#B01F24"/>
<stop offset="1" stop-color="#4A0D0F"/>
</radialGradient>
</defs>
</svg>
