<svg width="240" height="42" viewBox="0 0 240 42" fill="none" xmlns="http://www.w3.org/2000/svg">
<path d="M35.0353 2.69189H7.00706C3.13717 2.69189 0 5.62503 0 9.24325V35.4486C0 39.0669 3.13717 42 7.00706 42H35.0353C38.9052 42 42.0424 39.0669 42.0424 35.4486V9.24325C42.0424 5.62503 38.9052 2.69189 35.0353 2.69189Z" fill="url(#paint0_radial_32_739)"/>
<path fill-rule="evenodd" clip-rule="evenodd" d="M20.8432 11.6953C18.3744 11.6953 16.373 13.565 16.373 15.8713V27.9953C16.373 30.3017 18.3744 32.1713 20.8432 32.1713C23.312 32.1713 25.3134 30.3017 25.3134 27.9953V15.8713C25.3134 13.565 23.312 11.6953 20.8432 11.6953ZM17.5266 15.8713C17.5266 14.1602 19.0115 12.773 20.8432 12.773C22.6749 12.773 24.1598 14.1602 24.1598 15.8713V20.945C22.8789 21.3525 21.875 21.5454 20.8797 21.5462C19.8813 21.547 18.8539 21.3545 17.5266 20.942V15.8713Z" fill="white"/>
<path fill-rule="evenodd" clip-rule="evenodd" d="M20.7102 13.8107C20.5678 13.5445 20.2213 13.4366 19.9364 13.5697C18.3182 14.3256 18.3193 15.848 18.3197 16.4484C18.3197 16.458 18.3197 16.4673 18.3197 16.4764C18.3197 16.774 18.578 17.0153 18.8965 17.0153C19.2151 17.0153 19.4733 16.774 19.4733 16.4764C19.4733 15.8437 19.5007 14.9781 20.4523 14.5336C20.7372 14.4005 20.8527 14.0769 20.7102 13.8107Z" fill="white"/>
<path d="M87.44 12.536V35H81.968V25.752H73.456V35H67.984V12.536H73.456V21.336H81.968V12.536H87.44ZM90.9422 26.04C90.9422 24.2053 91.2836 22.5947 91.9662 21.208C92.6702 19.8213 93.6196 18.7547 94.8142 18.008C96.0089 17.2613 97.3422 16.888 98.8142 16.888C100.073 16.888 101.172 17.144 102.11 17.656C103.07 18.168 103.806 18.84 104.318 19.672V17.144H109.79V35H104.318V32.472C103.785 33.304 103.038 33.976 102.078 34.488C101.14 35 100.041 35.256 98.7822 35.256C97.3316 35.256 96.0089 34.8827 94.8142 34.136C93.6196 33.368 92.6702 32.2907 91.9662 30.904C91.2836 29.496 90.9422 27.8747 90.9422 26.04ZM104.318 26.072C104.318 24.7067 103.934 23.6293 103.166 22.84C102.42 22.0507 101.502 21.656 100.414 21.656C99.3262 21.656 98.3982 22.0507 97.6302 22.84C96.8836 23.608 96.5102 24.6747 96.5102 26.04C96.5102 27.4053 96.8836 28.4933 97.6302 29.304C98.3982 30.0933 99.3262 30.488 100.414 30.488C101.502 30.488 102.42 30.0933 103.166 29.304C103.934 28.5147 104.318 27.4373 104.318 26.072ZM119.861 11.32V35H114.389V11.32H119.861ZM132.594 35.256C130.845 35.256 129.266 34.8827 127.858 34.136C126.472 33.3893 125.373 32.3227 124.562 30.936C123.773 29.5493 123.378 27.928 123.378 26.072C123.378 24.2373 123.784 22.6267 124.594 21.24C125.405 19.832 126.514 18.7547 127.922 18.008C129.33 17.2613 130.909 16.888 132.658 16.888C134.408 16.888 135.986 17.2613 137.394 18.008C138.802 18.7547 139.912 19.832 140.722 21.24C141.533 22.6267 141.938 24.2373 141.938 26.072C141.938 27.9067 141.522 29.528 140.69 30.936C139.88 32.3227 138.76 33.3893 137.33 34.136C135.922 34.8827 134.344 35.256 132.594 35.256ZM132.594 30.52C133.64 30.52 134.525 30.136 135.25 29.368C135.997 28.6 136.37 27.5013 136.37 26.072C136.37 24.6427 136.008 23.544 135.282 22.776C134.578 22.008 133.704 21.624 132.658 21.624C131.592 21.624 130.706 22.008 130.002 22.776C129.298 23.5227 128.946 24.6213 128.946 26.072C128.946 27.5013 129.288 28.6 129.97 29.368C130.674 30.136 131.549 30.52 132.594 30.52ZM160.393 19.64C159.988 18.8933 159.401 18.328 158.633 17.944C157.887 17.5387 157.001 17.336 155.977 17.336C154.207 17.336 152.788 17.9227 151.721 19.096C150.655 20.248 150.121 21.7947 150.121 23.736C150.121 25.8053 150.676 27.4267 151.785 28.6C152.916 29.752 154.463 30.328 156.425 30.328C157.769 30.328 158.9 29.9867 159.817 29.304C160.756 28.6213 161.439 27.64 161.865 26.36H154.921V22.328H166.825V27.416C166.42 28.7813 165.727 30.0507 164.745 31.224C163.785 32.3973 162.559 33.3467 161.065 34.072C159.572 34.7973 157.887 35.16 156.009 35.16C153.791 35.16 151.807 34.68 150.057 33.72C148.329 32.7387 146.975 31.384 145.993 29.656C145.033 27.928 144.553 25.9547 144.553 23.736C144.553 21.5173 145.033 19.544 145.993 17.816C146.975 16.0667 148.329 14.712 150.057 13.752C151.785 12.7707 153.759 12.28 155.977 12.28C158.665 12.28 160.927 12.9307 162.761 14.232C164.617 15.5333 165.844 17.336 166.441 19.64H160.393ZM188.128 17.144V35H182.656V32.568C182.102 33.3573 181.344 33.9973 180.384 34.488C179.446 34.9573 178.4 35.192 177.248 35.192C175.883 35.192 174.678 34.8933 173.632 34.296C172.587 33.6773 171.776 32.792 171.2 31.64C170.624 30.488 170.336 29.1333 170.336 27.576V17.144H175.776V26.84C175.776 28.0347 176.086 28.9627 176.704 29.624C177.323 30.2853 178.155 30.616 179.2 30.616C180.267 30.616 181.11 30.2853 181.728 29.624C182.347 28.9627 182.656 28.0347 182.656 26.84V17.144H188.128ZM198.171 11.32V35H192.699V11.32H198.171ZM201.688 26.04C201.688 24.2053 202.03 22.5947 202.712 21.208C203.416 19.8213 204.366 18.7547 205.56 18.008C206.755 17.2613 208.088 16.888 209.56 16.888C210.819 16.888 211.918 17.144 212.856 17.656C213.816 18.168 214.552 18.84 215.064 19.672V17.144H220.536V35H215.064V32.472C214.531 33.304 213.784 33.976 212.824 34.488C211.886 35 210.787 35.256 209.528 35.256C208.078 35.256 206.755 34.8827 205.56 34.136C204.366 33.368 203.416 32.2907 202.712 30.904C202.03 29.496 201.688 27.8747 201.688 26.04ZM215.064 26.072C215.064 24.7067 214.68 23.6293 213.912 22.84C213.166 22.0507 212.248 21.656 211.16 21.656C210.072 21.656 209.144 22.0507 208.376 22.84C207.63 23.608 207.256 24.6747 207.256 26.04C207.256 27.4053 207.63 28.4933 208.376 29.304C209.144 30.0933 210.072 30.488 211.16 30.488C212.248 30.488 213.166 30.0933 213.912 29.304C214.68 28.5147 215.064 27.4373 215.064 26.072ZM232.335 11.736L231.695 27.064H227.055L226.415 11.736H232.335ZM229.455 35.256C228.495 35.256 227.706 34.9787 227.087 34.424C226.49 33.848 226.191 33.144 226.191 32.312C226.191 31.4587 226.49 30.744 227.087 30.168C227.706 29.592 228.495 29.304 229.455 29.304C230.394 29.304 231.162 29.592 231.759 30.168C232.378 30.744 232.687 31.4587 232.687 32.312C232.687 33.144 232.378 33.848 231.759 34.424C231.162 34.9787 230.394 35.256 229.455 35.256Z" fill="url(#paint1_linear_32_739)"/>
<defs>
<radialGradient id="paint0_radial_32_739" cx="0" cy="0" r="1" gradientUnits="userSpaceOnUse" gradientTransform="translate(21.0212 26.8799) rotate(-0.338762) scale(40.5049 37.8083)">
<stop stop-color="#B01F24"/>
<stop offset="1" stop-color="#6A0D1D"/>
</radialGradient>
<linearGradient id="paint1_linear_32_739" x1="69.3159" y1="86.6946" x2="293.829" y2="92.9169" gradientUnits="userSpaceOnUse">
<stop stop-color="#B01F24"/>
<stop offset="1" stop-color="#4A0D0F"/>
<stop offset="1" stop-color="#4B0D0F"/>
</linearGradient>
</defs>
</svg>
