<svg width="128" height="126" viewBox="0 0 128 126" fill="none" xmlns="http://www.w3.org/2000/svg">
<g id="Stethoscope">
<path id="Vector" d="M45.3333 18.375C41.7909 18.375 38.7862 20.6415 37.7342 23.7817C29.9707 24.865 24 31.4337 24 39.375V63C24 78.1047 35.782 90.5006 50.7929 91.7682C52.1601 105.163 64.3978 112.212 75.9216 112.546C82.1025 112.725 88.4305 111.033 93.2664 107.159C98.1719 103.23 101.333 97.2155 101.333 89.25V68.25H96V89.25C96 95.722 93.4948 100.208 89.9002 103.087C86.2362 106.022 81.2309 107.447 76.0784 107.298C66.4362 107.019 57.4794 101.432 56.1653 91.7422C71.0369 90.3398 82.6667 78.0068 82.6667 63V39.375C82.6667 32.4404 78.1138 26.5525 71.79 24.4498C70.9629 20.968 67.7891 18.375 64 18.375C59.5817 18.375 56 21.9008 56 26.25C56 30.5992 59.5817 34.125 64 34.125C67.1072 34.125 69.8007 32.3812 71.1256 29.8336C74.7899 31.4957 77.3333 35.1429 77.3333 39.375V63C77.3333 76.0477 66.5882 86.625 53.3333 86.625C40.0785 86.625 29.3333 76.0477 29.3333 63V39.375C29.3333 34.2949 32.9982 30.0575 37.8674 29.0849C39.0235 32.0334 41.9303 34.125 45.3333 34.125C49.7516 34.125 53.3333 30.5992 53.3333 26.25C53.3333 21.9008 49.7516 18.375 45.3333 18.375Z" fill="url(#paint0_linear_2208_76)"/>
<path id="Vector_2" fill-rule="evenodd" clip-rule="evenodd" d="M88 60.375C88 54.576 92.7756 49.875 98.6667 49.875C104.558 49.875 109.333 54.576 109.333 60.375C109.333 66.174 104.558 70.875 98.6667 70.875C92.7756 70.875 88 66.174 88 60.375ZM98.6667 63C100.139 63 101.333 61.8247 101.333 60.375C101.333 58.9253 100.139 57.75 98.6667 57.75C97.1939 57.75 96 58.9253 96 60.375C96 61.8247 97.1939 63 98.6667 63Z" fill="url(#paint1_linear_2208_76)"/>
</g>
<defs>
<linearGradient id="paint0_linear_2208_76" x1="62.6667" y1="18.375" x2="62.6667" y2="112.559" gradientUnits="userSpaceOnUse">
<stop stop-color="#84171B"/>
<stop offset="1" stop-color="#4A0D0F"/>
</linearGradient>
<linearGradient id="paint1_linear_2208_76" x1="98.6667" y1="49.875" x2="98.6667" y2="70.875" gradientUnits="userSpaceOnUse">
<stop stop-color="#84171B"/>
<stop offset="1" stop-color="#4A0D0F"/>
</linearGradient>
</defs>
</svg>
